<svg width="73" height="25" xmlns="http://www.w3.org/2000/svg"><path d="M9.846 6.658a5.325 5.325 0 0 0-1.408-.847 3.739 3.739 0 0 0-1.364-.275c-.557 0-1.012.132-1.364.396-.352.264-.528.609-.528 1.034 0 .293.088.535.264.726a2.3 2.3 0 0 0 .693.495c.286.14.609.26.968.363.36.103.715.213 1.067.33 1.408.47 2.438 1.096 3.091 1.881.653.785.979 1.808.979 3.069 0 .85-.143 1.62-.429 2.31a4.82 4.82 0 0 1-1.254 1.771c-.55.491-1.225.873-2.024 1.144-.8.271-1.705.407-2.717.407-2.097 0-4.04-.623-5.83-1.87l1.848-3.476c.645.572 1.283.997 1.914 1.276a4.6 4.6 0 0 0 1.87.418c.704 0 1.228-.161 1.573-.484.345-.323.517-.69.517-1.1 0-.25-.044-.466-.132-.649a1.406 1.406 0 0 0-.44-.506 3.526 3.526 0 0 0-.803-.429c-.33-.132-.73-.279-1.199-.44a24.071 24.071 0 0 1-1.639-.583 5.157 5.157 0 0 1-1.43-.847 3.936 3.936 0 0 1-1.012-1.331C.8 8.906.672 8.227.672 7.406c0-.821.136-1.566.407-2.233a4.962 4.962 0 0 1 1.144-1.716 5.1 5.1 0 0 1 1.804-1.111c.711-.264 1.507-.396 2.387-.396.821 0 1.68.114 2.574.341.895.227 1.753.561 2.574 1.001L9.846 6.658zm13.728 6.732c0-.352-.062-.686-.187-1.001a2.402 2.402 0 0 0-.539-.825 2.695 2.695 0 0 0-.825-.561A2.503 2.503 0 0 0 21 10.794a2.486 2.486 0 0 0-1.793.748 2.8 2.8 0 0 0-.55.825 2.45 2.45 0 0 0-.209 1.001 2.486 2.486 0 0 0 .748 1.793c.235.227.51.41.825.55.315.14.649.209 1.001.209a2.486 2.486 0 0 0 1.793-.748c.227-.235.41-.506.55-.814.14-.308.209-.63.209-.968zm-5.016 11.242h-3.982V7.714h3.982v1.254c.85-1.07 2.01-1.606 3.476-1.606.807 0 1.558.158 2.255.473a5.716 5.716 0 0 1 3.014 3.201c.286.733.429 1.518.429 2.354a6.25 6.25 0 0 1-.429 2.332 5.995 5.995 0 0 1-1.188 1.892 5.437 5.437 0 0 1-4.037 1.738c-1.408 0-2.581-.484-3.52-1.452v6.732zM33.98.74V19h-3.982V.74h3.982zm6.71 6.974V19h-3.982V7.714h3.982zM36.444 3.38c0-.308.059-.598.176-.869a2.282 2.282 0 0 1 1.199-1.199c.271-.117.561-.176.869-.176.308 0 .598.059.869.176a2.282 2.282 0 0 1 1.199 1.199c.117.271.176.561.176.869 0 .308-.059.598-.176.869a2.282 2.282 0 0 1-1.199 1.199 2.166 2.166 0 0 1-.869.176c-.308 0-.598-.059-.869-.176a2.282 2.282 0 0 1-1.199-1.199 2.166 2.166 0 0 1-.176-.869zm11.418 7.656V19H43.88v-7.964h-1.32V7.714h1.32V4.326h3.982v3.388h2.266v3.322h-2.266zm15.224-3.322V19h-3.982V7.714h3.982zM58.84 3.38c0-.308.059-.598.176-.869a2.282 2.282 0 0 1 1.199-1.199c.271-.117.561-.176.869-.176.308 0 .598.059.869.176a2.282 2.282 0 0 1 1.199 1.199c.117.271.176.561.176.869 0 .308-.059.598-.176.869a2.282 2.282 0 0 1-1.199 1.199 2.166 2.166 0 0 1-.869.176c-.308 0-.598-.059-.869-.176a2.282 2.282 0 0 1-1.199-1.199 2.166 2.166 0 0 1-.176-.869zm11.418 7.656V19h-3.982v-7.964h-1.32V7.714h1.32V4.326h3.982v3.388h2.266v3.322h-2.266z" fill="#0CB" fill-rule="evenodd"/></svg>