<svg height="48" width="48" xmlns="http://www.w3.org/2000/svg"><g fill="none" fill-rule="evenodd"><circle cx="24" cy="24" fill="#0cb" fill-rule="nonzero" r="24"/><path d="M29.748 17.804c-.768-.624-1.536-1.086-2.304-1.386s-1.512-.45-2.232-.45c-.912 0-1.656.216-2.232.648s-.864.996-.864 1.692c0 .48.144.876.432 1.188s.666.582 1.134.81.996.426 1.584.594 1.17.348 1.746.54c2.304.768 3.99 1.794 5.058 3.078s1.602 2.958 1.602 5.022c0 1.392-.234 2.652-.702 3.78s-1.152 2.094-2.052 2.898-2.004 1.428-3.312 1.872-2.79.666-4.446.666c-3.432 0-6.612-1.02-9.54-3.06l3.024-5.688c1.056.936 2.1 1.632 3.132 2.088s2.052.684 3.06.684c1.152 0 2.01-.264 2.574-.792s.846-1.128.846-1.8c0-.408-.072-.762-.216-1.062s-.384-.576-.72-.828-.774-.486-1.314-.702-1.194-.456-1.962-.72c-.912-.288-1.806-.606-2.682-.954s-1.656-.81-2.34-1.386-1.236-1.302-1.656-2.178-.63-1.986-.63-3.33.222-2.562.666-3.654 1.068-2.028 1.872-2.808 1.788-1.386 2.952-1.818 2.466-.648 3.906-.648c1.344 0 2.748.186 4.212.558s2.868.918 4.212 1.638z" fill="#fff"/><path d="M26.293 20l1.554 1.259-6.293 6.512z" fill="#0cb" fill-rule="nonzero"/></g></svg>